<svg xmlns="http://www.w3.org/2000/svg" buffered-rendering="static" xmlns:xlink="http://www.w3.org/1999/xlink" viewBox="0 0 128 128">
<desc>
This file was created by http://www.h2.dion.ne.jp/~defghi/img2svg3/img2svg3.htm at Wed Nov 30 2016 00:55:11 GMT+0900 (JST)
</desc>
<defs>
<g id="rgb" style="isolation:isolate;">
<g id="r" style="mix-blend-mode:screen;">
<path d="M64 8.064c-.275-.001-11.412 6.285-24.75 13.967l-24.25 13.969 0 28 0 28 24.5 14 24.5 14 24.5-14 24.5-14 0-28 0-28-24.25-13.967c-13.337-7.682-24.475-13.968-24.75-13.969Z" style="fill:rgb(255,0,0);"/>
<path d="M64 8.064c-.275-.001-11.412 6.285-24.75 13.967l-24.25 13.969 0 28 0 28 24.5 14 24.5 14 24.5-14 24.5-14 0-28 0-28-24.25-13.967c-13.337-7.682-24.475-13.968-24.75-13.969Z" style="fill:rgb(0,0,0);"/>
</g>
<g id="g" style="mix-blend-mode:screen;">
<path d="M64 8.064c-.275-.001-11.412 6.285-24.75 13.967l-24.25 13.969 0 28 0 28 24.5 14 24.5 14 24.5-14 24.5-14 0-28 0-28-24.25-13.967c-13.337-7.682-24.475-13.968-24.75-13.969Z" style="fill:rgb(0,255,0);"/>
<path d="M64 8.064c-.275-.001-11.412 6.285-24.75 13.967l-24.25 13.969 0 28 0 28 24.5 14 24.5 14 24.5-14 24.5-14 0-28 0-28-24.25-13.967c-13.337-7.682-24.475-13.968-24.75-13.969Z" style="fill:rgb(0,85,0);"/>
<path d="M 0 0" style="fill:rgb(0,0,0);"/>
</g>
<g id="b" style="mix-blend-mode:screen;">
<path d="M64 8.064c-.275-.001-11.412 6.285-24.75 13.967l-24.25 13.969 0 28 0 28 24.5 14 24.5 14 24.5-14 24.5-14 0-28 0-28-24.25-13.967c-13.337-7.682-24.475-13.968-24.75-13.969Z" style="fill:rgb(0,0,255);"/>
<path d="M64 8.064c-.275-.001-11.412 6.285-24.75 13.967l-24.25 13.969 0 28 0 28 24.5 14 24.5 14 24.5-14 24.5-14 0-28 0-28-24.25-13.967c-13.337-7.682-24.475-13.968-24.75-13.969Z" style="fill:rgb(0,0,0);"/>
</g>
</g>
</defs>
<use xlink:href="#rgb"/>
</svg>